<svg xmlns="http://www.w3.org/2000/svg" width="24" height="24" viewBox="0 0 24 24">
  <path fill="white" d="M12 .297c-6.63 0-12 5.373-12 12c0 5.303 
  3.438 9.8 8.205 11.385c.6.113.82-.258.82-.577
  c0-.285-.01-1.04-.015-2.04c-3.338.724-4.042-1.61-4.042-1.61
  c-.546-1.385-1.333-1.754-1.333-1.754
  c-1.089-.745.084-.729.084-.729
  c1.205.084 1.838 1.236 1.838 1.236
  c1.07 1.835 2.809 1.305 3.495.998
  c.108-.776.418-1.305.762-1.605
  c-2.665-.3-5.466-1.334-5.466-5.931
  c0-1.311.469-2.381 1.236-3.221
  c-.123-.303-.535-1.521.117-3.176
  c0 0 1.008-.322 3.301 1.23
  c.957-.266 1.983-.399 3.003-.404
  c1.02.005 2.047.138 3.006.404
  c2.291-1.552 3.297-1.23 3.297-1.23
  c.653 1.655.241 2.873.118 3.176
  c.77.84 1.235 1.91 1.235 3.221
  c0 4.609-2.803 5.628-5.475 5.921
  c.43.372.823 1.102.823 2.222
  c0 1.606-.015 2.896-.015 3.286
  c0 .319.216.694.825.576
  C20.565 22.092 24 17.592 24 12.297
  c0-6.627-5.373-12-12-12z"/>
</svg>